{
    "asset" : {
        "generator" : "Khronos glTF Blender I/O v3.2.40",
        "version" : "2.0"
    },
    "scene" : 0,
    "scenes" : [
        {
            "name" : "Scene",
            "nodes" : [
                0,
                1,
                2,
                3
            ]
        }
    ],
    "nodes" : [
        {
            "mesh" : 0,
            "name" : "Curve",
            "rotation" : [
                0.5,
                -0.5,
                0.5,
                0.5
            ],
            "scale" : [
                30.739917755126953,
                30.739917755126953,
                30.739917755126953
            ],
            "translation" : [
                -8.154221534729004,
                -0.6091125011444092,
                -1.422231912612915
            ]
        },
        {
            "mesh" : 1,
            "name" : "Curve.001",
            "rotation" : [
                0.5,
                -0.5,
                0.5,
                0.5
            ],
            "scale" : [
                30.739917755126953,
                30.739917755126953,
                30.739917755126953
            ],
            "translation" : [
                -8.154221534729004,
                -0.6091125011444092,
                -1.422231912612915
            ]
        },
        {
            "mesh" : 2,
            "name" : "Curve.002",
            "rotation" : [
                0.5,
                -0.5,
                0.5,
                0.5
            ],
            "scale" : [
                30.739917755126953,
                30.739917755126953,
                30.739917755126953
            ],
            "translation" : [
                -8.154221534729004,
                -0.6091125011444092,
                -1.422231912612915
            ]
        },
        {
            "mesh" : 3,
            "name" : "Curve.003",
            "rotation" : [
                0.5,
                -0.5,
                0.5,
                0.5
            ],
            "scale" : [
                30.739917755126953,
                30.739917755126953,
                30.739917755126953
            ],
            "translation" : [
                -8.154221534729004,
                -0.6091125011444092,
                -1.422231912612915
            ]
        }
    ],
    "materials" : [
        {
            "doubleSided" : true,
            "name" : "SVGMat.009",
            "pbrMetallicRoughness" : {
                "baseColorFactor" : [
                    0.4677838087081909,
                    0,
                    0.0015176349552348256,
                    1
                ],
                "metallicFactor" : 1,
                "roughnessFactor" : 0.10000000149011612
            }
        },
        {
            "doubleSided" : true,
            "name" : "SVGMat.005",
            "pbrMetallicRoughness" : {
                "baseColorFactor" : [
                    0.4677838087081909,
                    0,
                    0.0015176349552348256,
                    1
                ],
                "metallicFactor" : 1,
                "roughnessFactor" : 0.10000000149011612
            }
        },
        {
            "doubleSided" : true,
            "name" : "SVGMat.006",
            "pbrMetallicRoughness" : {
                "baseColorFactor" : [
                    0.44520118832588196,
                    0.48514994978904724,
                    0.5028864741325378,
                    1
                ],
                "metallicFactor" : 1,
                "roughnessFactor" : 0.10000000149011612
            }
        },
        {
            "doubleSided" : true,
            "name" : "SVGMat.007",
            "pbrMetallicRoughness" : {
                "baseColorFactor" : [
                    0.44520118832588196,
                    0.48514994978904724,
                    0.5028864741325378,
                    1
                ],
                "metallicFactor" : 1,
                "roughnessFactor" : 0.10000000149011612
            }
        }
    ],
    "meshes" : [
        {
            "name" : "Curve.004",
            "primitives" : [
                {
                    "attributes" : {
                        "POSITION" : 0,
                        "NORMAL" : 1,
                        "TEXCOORD_0" : 2
                    },
                    "indices" : 3,
                    "material" : 0
                }
            ]
        },
        {
            "name" : "Curve.005",
            "primitives" : [
                {
                    "attributes" : {
                        "POSITION" : 4,
                        "NORMAL" : 5,
                        "TEXCOORD_0" : 6
                    },
                    "indices" : 7,
                    "material" : 1
                }
            ]
        },
        {
            "name" : "Curve.006",
            "primitives" : [
                {
                    "attributes" : {
                        "POSITION" : 8,
                        "NORMAL" : 9,
                        "TEXCOORD_0" : 10
                    },
                    "indices" : 11,
                    "material" : 2
                }
            ]
        },
        {
            "name" : "Curve.007",
            "primitives" : [
                {
                    "attributes" : {
                        "POSITION" : 12,
                        "NORMAL" : 13,
                        "TEXCOORD_0" : 14
                    },
                    "indices" : 15,
                    "material" : 3
                }
            ]
        }
    ],
    "accessors" : [
        {
            "bufferView" : 0,
            "componentType" : 5126,
            "count" : 5652,
            "max" : [
                0.04839516431093216,
                0.0050999997183680534,
                -2.995962859131396e-06
            ],
            "min" : [
                0.022238625213503838,
                -0.0050999997183680534,
                -0.06668059527873993
            ],
            "type" : "VEC3"
        },
        {
            "bufferView" : 1,
            "componentType" : 5126,
            "count" : 5652,
            "type" : "VEC3"
        },
        {
            "bufferView" : 2,
            "componentType" : 5126,
            "count" : 5652,
            "type" : "VEC2"
        },
        {
            "bufferView" : 3,
            "componentType" : 5123,
            "count" : 24180,
            "type" : "SCALAR"
        },
        {
            "bufferView" : 4,
            "componentType" : 5126,
            "count" : 54,
            "max" : [
                0.028477516025304794,
                0.0050999997183680534,
                -0.04843338578939438
            ],
            "min" : [
                -0.0002496940433047712,
                -0.0050999997183680534,
                -0.06669174134731293
            ],
            "type" : "VEC3"
        },
        {
            "bufferView" : 5,
            "componentType" : 5126,
            "count" : 54,
            "type" : "VEC3"
        },
        {
            "bufferView" : 6,
            "componentType" : 5126,
            "count" : 54,
            "type" : "VEC2"
        },
        {
            "bufferView" : 7,
            "componentType" : 5123,
            "count" : 204,
            "type" : "SCALAR"
        },
        {
            "bufferView" : 8,
            "componentType" : 5126,
            "count" : 5530,
            "max" : [
                0.0743412971496582,
                0.0050999997183680534,
                -3.0038354452699423e-06
            ],
            "min" : [
                0.04818466678261757,
                -0.0050999997183680534,
                -0.06668059527873993
            ],
            "type" : "VEC3"
        },
        {
            "bufferView" : 9,
            "componentType" : 5126,
            "count" : 5530,
            "type" : "VEC3"
        },
        {
            "bufferView" : 10,
            "componentType" : 5126,
            "count" : 5530,
            "type" : "VEC2"
        },
        {
            "bufferView" : 11,
            "componentType" : 5123,
            "count" : 24180,
            "type" : "SCALAR"
        },
        {
            "bufferView" : 12,
            "componentType" : 5126,
            "count" : 72,
            "max" : [
                0.0968296155333519,
                0.0050999997183680534,
                -0.04843338578939438
            ],
            "min" : [
                0.06810259819030762,
                -0.0050999997183680534,
                -0.06669174134731293
            ],
            "type" : "VEC3"
        },
        {
            "bufferView" : 13,
            "componentType" : 5126,
            "count" : 72,
            "type" : "VEC3"
        },
        {
            "bufferView" : 14,
            "componentType" : 5126,
            "count" : 72,
            "type" : "VEC2"
        },
        {
            "bufferView" : 15,
            "componentType" : 5123,
            "count" : 276,
            "type" : "SCALAR"
        }
    ],
    "bufferViews" : [
        {
            "buffer" : 0,
            "byteLength" : 67824,
            "byteOffset" : 0
        },
        {
            "buffer" : 0,
            "byteLength" : 67824,
            "byteOffset" : 67824
        },
        {
            "buffer" : 0,
            "byteLength" : 45216,
            "byteOffset" : 135648
        },
        {
            "buffer" : 0,
            "byteLength" : 48360,
            "byteOffset" : 180864
        },
        {
            "buffer" : 0,
            "byteLength" : 648,
            "byteOffset" : 229224
        },
        {
            "buffer" : 0,
            "byteLength" : 648,
            "byteOffset" : 229872
        },
        {
            "buffer" : 0,
            "byteLength" : 432,
            "byteOffset" : 230520
        },
        {
            "buffer" : 0,
            "byteLength" : 408,
            "byteOffset" : 230952
        },
        {
            "buffer" : 0,
            "byteLength" : 66360,
            "byteOffset" : 231360
        },
        {
            "buffer" : 0,
            "byteLength" : 66360,
            "byteOffset" : 297720
        },
        {
            "buffer" : 0,
            "byteLength" : 44240,
            "byteOffset" : 364080
        },
        {
            "buffer" : 0,
            "byteLength" : 48360,
            "byteOffset" : 408320
        },
        {
            "buffer" : 0,
            "byteLength" : 864,
            "byteOffset" : 456680
        },
        {
            "buffer" : 0,
            "byteLength" : 864,
            "byteOffset" : 457544
        },
        {
            "buffer" : 0,
            "byteLength" : 576,
            "byteOffset" : 458408
        },
        {
            "buffer" : 0,
            "byteLength" : 552,
            "byteOffset" : 458984
        }
    ],
    "buffers" : [
        {
            "byteLength" : 459536,
            "uri" : "data:application/octet-stream;base64,"
        }
    ]
}
