<svg width="123" height="53" viewBox="0 0 123 53" fill="none" xmlns="http://www.w3.org/2000/svg">
<path d="M0.824 20L0.992 19.496C2.792 19.496 3.248 19.208 3.68 17.792L8.216 3.008C8.648 1.592 8.72 1.304 6.56 1.304L6.704 0.8H12.32C15.2 0.8 17.096 1.928 17.096 4.688C17.096 7.88 14.48 11.528 9.896 11.528C8.888 11.528 7.88 11.36 7.16 11.096L5.12 17.792C4.688 19.208 4.64 19.496 7.064 19.496L6.896 20H0.824ZM9.872 10.712C13.832 10.712 15.608 7.256 15.608 4.592C15.608 2.504 14.36 1.568 12.152 1.568C10.544 1.568 10.016 1.784 9.824 2.432L7.424 10.256C8.072 10.472 8.984 10.712 9.872 10.712ZM17.9191 20.312C16.1431 20.312 15.1351 18.896 15.1351 16.664C15.1351 12.104 18.5911 7.04 21.7831 7.04C23.5591 7.04 24.6151 8.552 24.6151 10.784C24.6151 15.32 21.1351 20.312 17.9191 20.312ZM18.3031 19.496C20.5111 19.496 23.2231 14.768 23.2231 10.712C23.2231 9.032 22.6711 7.856 21.3991 7.856C19.1911 7.856 16.5271 12.68 16.5271 16.712C16.5271 18.368 17.0311 19.496 18.3031 19.496ZM27.7087 20.312C25.8127 20.312 24.5407 19.04 24.5407 17.864C24.5407 17.336 24.8527 17.048 25.2607 17.048C25.6447 17.048 25.7407 17.336 25.9327 17.936C26.2687 18.968 26.8447 19.616 28.0207 19.616C29.3167 19.616 29.9647 18.632 29.9647 17.336C29.9647 16.496 29.6527 15.824 29.1487 15.008L28.4287 13.76C27.5407 12.296 27.1087 11.48 27.1087 10.424C27.1087 8.432 28.7167 7.016 30.6847 7.016C32.3167 7.016 33.2527 8.144 33.2527 8.912C33.2527 9.416 32.8927 9.704 32.5327 9.704C32.1487 9.704 32.0047 9.368 31.8607 8.936C31.5967 8.24 31.2367 7.688 30.2287 7.688C29.1007 7.688 28.3327 8.432 28.3327 9.752C28.3327 10.544 28.6687 11.408 29.2207 12.32L29.9167 13.544C30.8287 15.128 31.1887 15.728 31.1887 16.736C31.1887 18.848 29.7007 20.312 27.7087 20.312ZM35.654 20.312C33.758 20.312 32.486 19.04 32.486 17.864C32.486 17.336 32.798 17.048 33.206 17.048C33.59 17.048 33.686 17.336 33.878 17.936C34.214 18.968 34.79 19.616 35.966 19.616C37.262 19.616 37.91 18.632 37.91 17.336C37.91 16.496 37.598 15.824 37.094 15.008L36.374 13.76C35.486 12.296 35.054 11.48 35.054 10.424C35.054 8.432 36.662 7.016 38.63 7.016C40.262 7.016 41.198 8.144 41.198 8.912C41.198 9.416 40.838 9.704 40.478 9.704C40.094 9.704 39.95 9.368 39.806 8.936C39.542 8.24 39.182 7.688 38.174 7.688C37.046 7.688 36.278 8.432 36.278 9.752C36.278 10.544 36.614 11.408 37.166 12.32L37.862 13.544C38.774 15.128 39.134 15.728 39.134 16.736C39.134 18.848 37.646 20.312 35.654 20.312ZM47.0308 4.184C46.3108 4.184 45.8308 3.728 45.8308 3.032C45.8308 2.312 46.3108 1.88 47.0308 1.88C47.7268 1.88 48.1828 2.312 48.1828 3.032C48.1828 3.728 47.7268 4.184 47.0308 4.184ZM42.1588 17.408L44.6788 10.16C44.8948 9.512 45.1588 8.744 45.1588 8.456C45.1588 8.096 45.0148 8 44.7988 8C43.9828 8 42.7588 9.56 41.9428 11H41.4388C42.4228 9.104 44.0548 7.112 45.5668 7.112C46.1908 7.112 46.5028 7.616 46.5028 8.192C46.5028 8.696 46.3108 9.368 45.9988 10.184L43.4548 17.432C43.3348 17.792 43.1428 18.32 43.1428 18.632C43.1428 18.992 43.2388 19.232 43.6228 19.232C44.6068 19.232 45.7108 17.576 46.5268 15.752H47.0308C46.1908 17.816 44.6788 20.144 43.0468 20.144C42.1108 20.144 41.7748 19.616 41.7748 18.896C41.7748 18.464 41.9668 17.936 42.1588 17.408ZM56.0876 7.064C57.3596 7.064 57.8396 8.264 57.8396 9.944C57.8396 14.12 54.7916 20.312 51.0476 20.312C49.4876 20.312 48.2396 19.736 47.5436 19.328L52.9196 2.768C53.2796 1.664 53.0396 1.28 51.2636 1.28L51.4076 0.8C53.8796 0.8 54.3116 0.751999 54.7916 0.127998L55.0796 0.223999L51.0476 12.656C52.2476 10.16 54.1676 7.064 56.0876 7.064ZM51.1436 19.448C53.9756 19.448 56.4236 13.856 56.4236 10.136C56.4236 8.912 56.2076 8.216 55.5116 8.216C53.8796 8.216 51.3836 12.416 50.3036 15.224L49.0796 18.8C49.4636 19.112 50.0876 19.448 51.1436 19.448ZM64.5151 4.184C63.7951 4.184 63.3151 3.728 63.3151 3.032C63.3151 2.312 63.7951 1.88 64.5151 1.88C65.2111 1.88 65.6671 2.312 65.6671 3.032C65.6671 3.728 65.2111 4.184 64.5151 4.184ZM59.6431 17.408L62.1631 10.16C62.3791 9.512 62.6431 8.744 62.6431 8.456C62.6431 8.096 62.4991 8 62.2831 8C61.4671 8 60.2431 9.56 59.4271 11H58.9231C59.9071 9.104 61.5391 7.112 63.0511 7.112C63.6751 7.112 63.9871 7.616 63.9871 8.192C63.9871 8.696 63.7951 9.368 63.4831 10.184L60.9391 17.432C60.8191 17.792 60.6271 18.32 60.6271 18.632C60.6271 18.992 60.7231 19.232 61.1071 19.232C62.0911 19.232 63.1951 17.576 64.0111 15.752H64.5151C63.6751 17.816 62.1631 20.144 60.5311 20.144C59.5951 20.144 59.2591 19.616 59.2591 18.896C59.2591 18.464 59.4511 17.936 59.6431 17.408ZM72.1799 0.127998L72.4679 0.223999L66.8999 17.408C66.7799 17.768 66.6359 18.32 66.6359 18.632C66.6359 18.992 66.7319 19.232 67.1159 19.232C68.0999 19.232 69.1799 17.576 70.0199 15.752H70.5239C69.6839 17.816 68.1479 20.144 66.5159 20.144C65.5799 20.144 65.2439 19.616 65.2439 18.896C65.2439 18.464 65.4119 17.912 65.5799 17.384L70.2839 2.768C70.6679 1.664 70.4279 1.28 68.6519 1.28L68.7959 0.8C71.0999 0.8 71.6999 0.655999 72.1799 0.127998ZM77.3823 4.184C76.6623 4.184 76.1823 3.728 76.1823 3.032C76.1823 2.312 76.6623 1.88 77.3823 1.88C78.0783 1.88 78.5343 2.312 78.5343 3.032C78.5343 3.728 78.0783 4.184 77.3823 4.184ZM72.5103 17.408L75.0303 10.16C75.2463 9.512 75.5103 8.744 75.5103 8.456C75.5103 8.096 75.3663 8 75.1503 8C74.3343 8 73.1103 9.56 72.2943 11H71.7903C72.7743 9.104 74.4063 7.112 75.9183 7.112C76.5423 7.112 76.8543 7.616 76.8543 8.192C76.8543 8.696 76.6623 9.368 76.3503 10.184L73.8063 17.432C73.6863 17.792 73.4943 18.32 73.4943 18.632C73.4943 18.992 73.5903 19.232 73.9743 19.232C74.9583 19.232 76.0623 17.576 76.8783 15.752H77.3823C76.5423 17.816 75.0303 20.144 73.3983 20.144C72.4623 20.144 72.1263 19.616 72.1263 18.896C72.1263 18.464 72.3183 17.936 72.5103 17.408ZM83.2471 8L80.0551 17.264C79.9351 17.672 79.7671 18.2 79.7671 18.56C79.7671 18.944 79.8631 19.184 80.2711 19.184C81.3991 19.184 82.8391 17.384 83.7991 15.344H84.3271C83.3431 17.72 81.4951 20.144 79.6231 20.144C78.7111 20.144 78.3751 19.64 78.3751 18.872C78.3751 18.416 78.5431 17.816 78.7111 17.312L81.9031 8H80.0071L80.1991 7.544C82.2631 7.496 83.0071 6.512 83.9671 4.448H84.5191L83.4391 7.376H85.8391L85.6471 8H83.2471ZM83.2887 25.496C82.5687 25.496 82.2327 25.16 82.2327 24.752C82.2327 24.152 82.7607 23.672 83.4087 23.672C84.1768 23.672 84.4167 24.152 85.1368 24.152C86.0968 24.152 87.3688 22.712 88.4967 21.056C88.9528 16.064 89.0248 12.224 89.0008 10.232C89.0008 8.504 88.8328 8.144 88.4248 8.144C87.8488 8.144 87.0808 9.488 86.3608 11.312H85.8808C86.6248 9.296 87.6568 7.136 88.9288 7.136C89.9608 7.136 90.2968 7.952 90.3208 10.136C90.3208 12.152 90.2008 15.656 89.7928 19.592C92.7208 15.8 94.1368 12.512 94.1368 10.28C94.1368 9.032 93.5128 8.408 93.5128 7.736C93.5128 7.4 93.7288 7.04 94.1848 7.04C94.8088 7.04 95.1688 7.736 95.1688 9.32C95.1688 11.888 93.5848 15.272 91.0648 18.872C88.4728 22.592 86.0968 25.496 83.2887 25.496Z" fill="black"/>
<path d="M56.824 47L56.992 46.496C58.792 46.496 59.248 46.208 59.68 44.792L64.216 30.008C64.648 28.592 64.72 28.304 62.56 28.304L62.704 27.8H67.864C70.96 27.8 72.712 29.168 72.712 31.544C72.712 34.928 69.28 37.16 65.08 36.968L65.008 37.088C66.064 37.232 66.688 37.856 67.144 39.344L68.464 43.64C69.136 45.92 69.616 46.496 71.632 46.496L71.488 47H70.408C68.776 47 67.84 46.664 67.024 43.88L65.656 39.296C65.176 37.76 64.432 37.352 63.448 37.28L61.168 44.792C60.736 46.208 60.688 46.496 63.112 46.496L62.92 47H56.824ZM65.848 29.432L63.76 36.272C64.024 36.296 64.288 36.296 64.528 36.296C68.32 36.272 71.2 34.76 71.2 31.544C71.2 29.432 69.88 28.568 67.432 28.568C66.592 28.568 66.064 28.76 65.848 29.432ZM75.2121 46.256C76.7241 46.256 78.1881 44.456 79.3401 41.96H79.8201C78.5961 45.08 76.7481 47.312 74.6361 47.312C73.0521 47.312 72.0921 46.088 72.0921 44.048C72.0921 40.208 75.3801 34.064 78.7161 34.064C79.8441 34.064 80.5401 34.832 80.5401 35.96C80.5401 38.456 77.2761 41.072 73.8681 41.624C73.6521 42.488 73.5321 43.328 73.5321 44C73.5321 45.464 74.2041 46.256 75.2121 46.256ZM78.5001 34.808C76.6521 34.808 74.8761 38 74.0361 40.952C76.8441 40.328 79.3641 38.336 79.3641 35.96C79.3641 35.264 79.1721 34.808 78.5001 34.808ZM88.5121 46.232C89.4961 46.232 90.5761 44.576 91.4161 42.752H91.9201C91.0801 44.816 89.5441 47.144 87.9121 47.144C86.9761 47.144 86.6401 46.616 86.6401 45.896C86.6401 45.464 86.8801 44.936 87.0721 44.408L88.4401 40.64H88.2241C87.0481 43.184 84.6001 47.216 82.6561 47.216C81.2881 47.216 80.8081 46.064 80.8081 44.432C80.8081 40.328 84.6241 34.064 87.8161 34.064C89.2321 34.064 89.9041 35.096 89.7841 36.68H89.8561L90.5761 34.688C91.1041 34.688 91.6081 34.376 91.8721 33.968L92.1361 34.088L88.3681 44.432C88.2481 44.792 88.0321 45.32 88.0321 45.632C88.0321 45.992 88.1281 46.232 88.5121 46.232ZM83.0641 46.064C84.6481 46.064 87.5041 41.84 88.4641 39.176C88.7281 38.456 89.0161 37.592 89.0161 36.632C89.0161 35.624 88.7041 34.952 87.8401 34.952C85.3681 34.952 82.2241 40.544 82.2241 44.264C82.2241 45.416 82.4401 46.064 83.0641 46.064ZM99.5862 27.128L99.8742 27.224L94.3062 44.408C94.1862 44.768 94.0422 45.32 94.0422 45.632C94.0422 45.992 94.1382 46.232 94.5222 46.232C95.5062 46.232 96.5862 44.576 97.4262 42.752H97.9302C97.0902 44.816 95.5542 47.144 93.9222 47.144C92.9862 47.144 92.6502 46.616 92.6502 45.896C92.6502 45.464 92.8182 44.912 92.9862 44.384L97.6902 29.768C98.0742 28.664 97.8342 28.28 96.0582 28.28L96.2022 27.8C98.5062 27.8 99.1062 27.656 99.5862 27.128ZM104.789 31.184C104.069 31.184 103.589 30.728 103.589 30.032C103.589 29.312 104.069 28.88 104.789 28.88C105.485 28.88 105.941 29.312 105.941 30.032C105.941 30.728 105.485 31.184 104.789 31.184ZM99.9166 44.408L102.437 37.16C102.653 36.512 102.917 35.744 102.917 35.456C102.917 35.096 102.773 35 102.557 35C101.741 35 100.517 36.56 99.7006 38H99.1966C100.181 36.104 101.813 34.112 103.325 34.112C103.949 34.112 104.261 34.616 104.261 35.192C104.261 35.696 104.069 36.368 103.757 37.184L101.213 44.432C101.093 44.792 100.901 45.32 100.901 45.632C100.901 45.992 100.997 46.232 101.381 46.232C102.365 46.232 103.469 44.576 104.285 42.752H104.789C103.949 44.816 102.437 47.144 100.805 47.144C99.8686 47.144 99.5326 46.616 99.5326 45.896C99.5326 45.464 99.7246 44.936 99.9166 44.408ZM110.653 35L107.461 44.264C107.341 44.672 107.173 45.2 107.173 45.56C107.173 45.944 107.269 46.184 107.677 46.184C108.805 46.184 110.245 44.384 111.205 42.344H111.733C110.749 44.72 108.901 47.144 107.029 47.144C106.117 47.144 105.781 46.64 105.781 45.872C105.781 45.416 105.949 44.816 106.117 44.312L109.309 35H107.413L107.605 34.544C109.669 34.496 110.413 33.512 111.373 31.448H111.925L110.845 34.376H113.245L113.053 35H110.653ZM110.695 52.496C109.975 52.496 109.639 52.16 109.639 51.752C109.639 51.152 110.167 50.672 110.815 50.672C111.583 50.672 111.823 51.152 112.543 51.152C113.503 51.152 114.775 49.712 115.903 48.056C116.359 43.064 116.431 39.224 116.407 37.232C116.407 35.504 116.239 35.144 115.831 35.144C115.255 35.144 114.487 36.488 113.767 38.312H113.287C114.031 36.296 115.063 34.136 116.335 34.136C117.367 34.136 117.703 34.952 117.727 37.136C117.727 39.152 117.607 42.656 117.199 46.592C120.127 42.8 121.543 39.512 121.543 37.28C121.543 36.032 120.919 35.408 120.919 34.736C120.919 34.4 121.135 34.04 121.591 34.04C122.215 34.04 122.575 34.736 122.575 36.32C122.575 38.888 120.991 42.272 118.471 45.872C115.879 49.592 113.503 52.496 110.695 52.496Z" fill="black"/>
<path d="M47.214 33.864H47.606C47.606 36.048 47.172 37.224 45.8 37.224C44.708 37.224 44.134 36.566 44.134 34.606V30.154H43.154V29.636C44.176 29.608 44.82 28.852 44.96 27.536H45.464V29.58H47.144V30.154H45.492V34.242C45.492 35.488 45.618 36.314 46.276 36.314C46.906 36.314 47.214 35.53 47.214 33.864ZM51.2842 37.224C49.4642 37.224 48.2742 35.614 48.2742 33.318C48.2742 31.064 49.3802 29.328 51.2842 29.328C53.0902 29.328 54.2942 30.938 54.2942 33.234C54.2942 35.488 53.1742 37.224 51.2842 37.224ZM51.4942 36.608C52.4882 36.608 52.8802 35.292 52.8802 34.06C52.8802 32.156 52.3062 29.944 51.0742 29.944C50.0802 29.944 49.6742 31.26 49.6742 32.492C49.6742 34.396 50.2622 36.608 51.4942 36.608Z" fill="black"/>
</svg>
