<svg width="154" height="82" viewBox="0 0 154 82" fill="none" xmlns="http://www.w3.org/2000/svg">
<g filter="url(#filter0_d_522_385)">
<path d="M4.432 27L4.656 26.328C7.056 26.328 7.664 25.944 8.24 24.056L14.288 4.344C14.864 2.456 14.96 2.072 12.08 2.072L12.272 1.4H19.76C23.6 1.4 26.128 2.904 26.128 6.584C26.128 10.84 22.64 15.704 16.528 15.704C15.184 15.704 13.84 15.48 12.88 15.128L10.16 24.056C9.584 25.944 9.52 26.328 12.752 26.328L12.528 27H4.432ZM16.496 14.616C21.776 14.616 24.144 10.008 24.144 6.456C24.144 3.672 22.48 2.424 19.536 2.424C17.392 2.424 16.688 2.712 16.432 3.576L13.232 14.008C14.096 14.296 15.312 14.616 16.496 14.616ZM27.2255 27.416C24.8575 27.416 23.5135 25.528 23.5135 22.552C23.5135 16.472 28.1215 9.72 32.3775 9.72C34.7455 9.72 36.1535 11.736 36.1535 14.712C36.1535 20.76 31.5135 27.416 27.2255 27.416ZM27.7375 26.328C30.6815 26.328 34.2975 20.024 34.2975 14.616C34.2975 12.376 33.5615 10.808 31.8655 10.808C28.9215 10.808 25.3695 17.24 25.3695 22.616C25.3695 24.824 26.0415 26.328 27.7375 26.328ZM40.2783 27.416C37.7503 27.416 36.0542 25.72 36.0542 24.152C36.0542 23.448 36.4703 23.064 37.0143 23.064C37.5263 23.064 37.6543 23.448 37.9103 24.248C38.3583 25.624 39.1263 26.488 40.6943 26.488C42.4223 26.488 43.2863 25.176 43.2863 23.448C43.2863 22.328 42.8703 21.432 42.1983 20.344L41.2383 18.68C40.0543 16.728 39.4783 15.64 39.4783 14.232C39.4783 11.576 41.6223 9.688 44.2463 9.688C46.4223 9.688 47.6703 11.192 47.6703 12.216C47.6703 12.888 47.1903 13.272 46.7103 13.272C46.1983 13.272 46.0063 12.824 45.8142 12.248C45.4623 11.32 44.9823 10.584 43.6383 10.584C42.1343 10.584 41.1102 11.576 41.1102 13.336C41.1102 14.392 41.5583 15.544 42.2943 16.76L43.2223 18.392C44.4383 20.504 44.9183 21.304 44.9183 22.648C44.9183 25.464 42.9343 27.416 40.2783 27.416ZM50.872 27.416C48.344 27.416 46.648 25.72 46.648 24.152C46.648 23.448 47.064 23.064 47.608 23.064C48.12 23.064 48.248 23.448 48.504 24.248C48.952 25.624 49.72 26.488 51.288 26.488C53.016 26.488 53.88 25.176 53.88 23.448C53.88 22.328 53.464 21.432 52.792 20.344L51.832 18.68C50.648 16.728 50.072 15.64 50.072 14.232C50.072 11.576 52.216 9.688 54.84 9.688C57.016 9.688 58.264 11.192 58.264 12.216C58.264 12.888 57.784 13.272 57.304 13.272C56.792 13.272 56.6 12.824 56.408 12.248C56.056 11.32 55.576 10.584 54.232 10.584C52.728 10.584 51.704 11.576 51.704 13.336C51.704 14.392 52.152 15.544 52.888 16.76L53.816 18.392C55.032 20.504 55.512 21.304 55.512 22.648C55.512 25.464 53.528 27.416 50.872 27.416ZM66.041 5.912C65.081 5.912 64.441 5.304 64.441 4.376C64.441 3.416 65.081 2.84 66.041 2.84C66.969 2.84 67.577 3.416 67.577 4.376C67.577 5.304 66.969 5.912 66.041 5.912ZM59.545 23.544L62.905 13.88C63.193 13.016 63.545 11.992 63.545 11.608C63.545 11.128 63.353 11 63.065 11C61.977 11 60.345 13.08 59.257 15H58.585C59.897 12.472 62.073 9.816 64.089 9.816C64.921 9.816 65.337 10.488 65.337 11.256C65.337 11.928 65.081 12.824 64.665 13.912L61.273 23.576C61.113 24.056 60.857 24.76 60.857 25.176C60.857 25.656 60.985 25.976 61.497 25.976C62.809 25.976 64.281 23.768 65.369 21.336H66.041C64.921 24.088 62.905 27.192 60.729 27.192C59.481 27.192 59.033 26.488 59.033 25.528C59.033 24.952 59.289 24.248 59.545 23.544ZM78.1168 9.752C79.8128 9.752 80.4528 11.352 80.4528 13.592C80.4528 19.16 76.3888 27.416 71.3968 27.416C69.3168 27.416 67.6528 26.648 66.7248 26.104L73.8928 4.024C74.3728 2.552 74.0528 2.04 71.6848 2.04L71.8768 1.4C75.1728 1.4 75.7488 1.336 76.3888 0.503998L76.7728 0.631998L71.3968 17.208C72.9968 13.88 75.5568 9.752 78.1168 9.752ZM71.5248 26.264C75.3008 26.264 78.5648 18.808 78.5648 13.848C78.5648 12.216 78.2768 11.288 77.3488 11.288C75.1728 11.288 71.8448 16.888 70.4048 20.632L68.7728 25.4C69.2848 25.816 70.1168 26.264 71.5248 26.264ZM89.3535 5.912C88.3935 5.912 87.7535 5.304 87.7535 4.376C87.7535 3.416 88.3935 2.84 89.3535 2.84C90.2815 2.84 90.8895 3.416 90.8895 4.376C90.8895 5.304 90.2815 5.912 89.3535 5.912ZM82.8575 23.544L86.2175 13.88C86.5055 13.016 86.8575 11.992 86.8575 11.608C86.8575 11.128 86.6655 11 86.3775 11C85.2895 11 83.6575 13.08 82.5695 15H81.8975C83.2095 12.472 85.3855 9.816 87.4015 9.816C88.2335 9.816 88.6495 10.488 88.6495 11.256C88.6495 11.928 88.3935 12.824 87.9775 13.912L84.5855 23.576C84.4255 24.056 84.1695 24.76 84.1695 25.176C84.1695 25.656 84.2975 25.976 84.8095 25.976C86.1215 25.976 87.5935 23.768 88.6815 21.336H89.3535C88.2335 24.088 86.2175 27.192 84.0415 27.192C82.7935 27.192 82.3455 26.488 82.3455 25.528C82.3455 24.952 82.6015 24.248 82.8575 23.544ZM99.5733 0.503998L99.9573 0.631998L92.5333 23.544C92.3733 24.024 92.1813 24.76 92.1813 25.176C92.1813 25.656 92.3093 25.976 92.8213 25.976C94.1333 25.976 95.5733 23.768 96.6933 21.336H97.3653C96.2453 24.088 94.1973 27.192 92.0213 27.192C90.7733 27.192 90.3253 26.488 90.3253 25.528C90.3253 24.952 90.5493 24.216 90.7733 23.512L97.0453 4.024C97.5573 2.552 97.2373 2.04 94.8693 2.04L95.0613 1.4C98.1333 1.4 98.9333 1.208 99.5733 0.503998ZM106.51 5.912C105.55 5.912 104.91 5.304 104.91 4.376C104.91 3.416 105.55 2.84 106.51 2.84C107.438 2.84 108.046 3.416 108.046 4.376C108.046 5.304 107.438 5.912 106.51 5.912ZM100.014 23.544L103.374 13.88C103.662 13.016 104.014 11.992 104.014 11.608C104.014 11.128 103.822 11 103.534 11C102.446 11 100.814 13.08 99.7258 15H99.0538C100.366 12.472 102.542 9.816 104.558 9.816C105.39 9.816 105.806 10.488 105.806 11.256C105.806 11.928 105.55 12.824 105.134 13.912L101.742 23.576C101.582 24.056 101.326 24.76 101.326 25.176C101.326 25.656 101.454 25.976 101.966 25.976C103.278 25.976 104.75 23.768 105.838 21.336H106.51C105.39 24.088 103.374 27.192 101.198 27.192C99.9498 27.192 99.5018 26.488 99.5018 25.528C99.5018 24.952 99.7578 24.248 100.014 23.544ZM114.33 11L110.074 23.352C109.914 23.896 109.69 24.6 109.69 25.08C109.69 25.592 109.818 25.912 110.362 25.912C111.866 25.912 113.786 23.512 115.066 20.792H115.77C114.458 23.96 111.994 27.192 109.498 27.192C108.282 27.192 107.834 26.52 107.834 25.496C107.834 24.888 108.058 24.088 108.282 23.416L112.538 11H110.01L110.266 10.392C113.018 10.328 114.01 9.016 115.29 6.264H116.026L114.586 10.168H117.786L117.53 11H114.33ZM114.385 34.328C113.425 34.328 112.977 33.88 112.977 33.336C112.977 32.536 113.681 31.896 114.545 31.896C115.569 31.896 115.889 32.536 116.849 32.536C118.129 32.536 119.825 30.616 121.329 28.408C121.937 21.752 122.033 16.632 122.001 13.976C122.001 11.672 121.777 11.192 121.233 11.192C120.465 11.192 119.441 12.984 118.481 15.416H117.841C118.833 12.728 120.209 9.848 121.905 9.848C123.281 9.848 123.729 10.936 123.761 13.848C123.761 16.536 123.601 21.208 123.057 26.456C126.961 21.4 128.849 17.016 128.849 14.04C128.849 12.376 128.017 11.544 128.017 10.648C128.017 10.2 128.305 9.72 128.913 9.72C129.745 9.72 130.225 10.648 130.225 12.76C130.225 16.184 128.113 20.696 124.753 25.496C121.297 30.456 118.129 34.328 114.385 34.328Z" fill="black"/>
<path d="M61.432 66L61.656 65.328C64.056 65.328 64.664 64.944 65.24 63.056L71.288 43.344C71.864 41.456 71.96 41.072 69.08 41.072L69.272 40.4H76.152C80.28 40.4 82.616 42.224 82.616 45.392C82.616 49.904 78.04 52.88 72.44 52.624L72.344 52.784C73.752 52.976 74.584 53.808 75.192 55.792L76.952 61.52C77.848 64.56 78.488 65.328 81.176 65.328L80.984 66H79.544C77.368 66 76.12 65.552 75.032 61.84L73.208 55.728C72.568 53.68 71.576 53.136 70.264 53.04L67.224 63.056C66.648 64.944 66.584 65.328 69.816 65.328L69.56 66H61.432ZM73.464 42.576L70.68 51.696C71.032 51.728 71.384 51.728 71.704 51.728C76.76 51.696 80.6 49.68 80.6 45.392C80.6 42.576 78.84 41.424 75.576 41.424C74.456 41.424 73.752 41.68 73.464 42.576ZM85.9495 65.008C87.9655 65.008 89.9175 62.608 91.4535 59.28H92.0935C90.4615 63.44 87.9975 66.416 85.1815 66.416C83.0695 66.416 81.7895 64.784 81.7895 62.064C81.7895 56.944 86.1735 48.752 90.6215 48.752C92.1255 48.752 93.0535 49.776 93.0535 51.28C93.0535 54.608 88.7015 58.096 84.1575 58.832C83.8695 59.984 83.7095 61.104 83.7095 62C83.7095 63.952 84.6055 65.008 85.9495 65.008ZM90.3335 49.744C87.8695 49.744 85.5015 54 84.3815 57.936C88.1255 57.104 91.4855 54.448 91.4855 51.28C91.4855 50.352 91.2295 49.744 90.3335 49.744ZM103.683 64.976C104.995 64.976 106.435 62.768 107.555 60.336H108.227C107.107 63.088 105.059 66.192 102.883 66.192C101.635 66.192 101.187 65.488 101.187 64.528C101.187 63.952 101.507 63.248 101.763 62.544L103.587 57.52H103.299C101.731 60.912 98.4668 66.288 95.8748 66.288C94.0508 66.288 93.4108 64.752 93.4108 62.576C93.4108 57.104 98.4988 48.752 102.755 48.752C104.643 48.752 105.539 50.128 105.379 52.24H105.475L106.435 49.584C107.139 49.584 107.811 49.168 108.163 48.624L108.515 48.784L103.491 62.576C103.331 63.056 103.043 63.76 103.043 64.176C103.043 64.656 103.171 64.976 103.683 64.976ZM96.4188 64.752C98.5308 64.752 102.339 59.12 103.619 55.568C103.971 54.608 104.355 53.456 104.355 52.176C104.355 50.832 103.939 49.936 102.787 49.936C99.4908 49.936 95.2988 57.392 95.2988 62.352C95.2988 63.888 95.5868 64.752 96.4188 64.752ZM118.448 39.504L118.832 39.632L111.408 62.544C111.248 63.024 111.056 63.76 111.056 64.176C111.056 64.656 111.184 64.976 111.696 64.976C113.008 64.976 114.448 62.768 115.568 60.336H116.24C115.12 63.088 113.072 66.192 110.896 66.192C109.648 66.192 109.2 65.488 109.2 64.528C109.2 63.952 109.424 63.216 109.648 62.512L115.92 43.024C116.432 41.552 116.112 41.04 113.744 41.04L113.936 40.4C117.008 40.4 117.808 40.208 118.448 39.504ZM125.385 44.912C124.425 44.912 123.785 44.304 123.785 43.376C123.785 42.416 124.425 41.84 125.385 41.84C126.313 41.84 126.921 42.416 126.921 43.376C126.921 44.304 126.313 44.912 125.385 44.912ZM118.889 62.544L122.249 52.88C122.537 52.016 122.889 50.992 122.889 50.608C122.889 50.128 122.697 50 122.409 50C121.321 50 119.689 52.08 118.601 54H117.929C119.241 51.472 121.417 48.816 123.433 48.816C124.265 48.816 124.681 49.488 124.681 50.256C124.681 50.928 124.425 51.824 124.009 52.912L120.617 62.576C120.457 63.056 120.201 63.76 120.201 64.176C120.201 64.656 120.329 64.976 120.841 64.976C122.153 64.976 123.625 62.768 124.713 60.336H125.385C124.265 63.088 122.249 66.192 120.073 66.192C118.825 66.192 118.377 65.488 118.377 64.528C118.377 63.952 118.633 63.248 118.889 62.544ZM133.205 50L128.949 62.352C128.789 62.896 128.565 63.6 128.565 64.08C128.565 64.592 128.693 64.912 129.237 64.912C130.741 64.912 132.661 62.512 133.941 59.792H134.645C133.333 62.96 130.869 66.192 128.373 66.192C127.157 66.192 126.709 65.52 126.709 64.496C126.709 63.888 126.933 63.088 127.157 62.416L131.413 50H128.885L129.141 49.392C131.893 49.328 132.885 48.016 134.165 45.264H134.901L133.461 49.168H136.661L136.405 50H133.205ZM133.26 73.328C132.3 73.328 131.852 72.88 131.852 72.336C131.852 71.536 132.556 70.896 133.42 70.896C134.444 70.896 134.764 71.536 135.724 71.536C137.004 71.536 138.7 69.616 140.204 67.408C140.812 60.752 140.908 55.632 140.876 52.976C140.876 50.672 140.652 50.192 140.108 50.192C139.34 50.192 138.316 51.984 137.356 54.416H136.716C137.708 51.728 139.084 48.848 140.78 48.848C142.156 48.848 142.604 49.936 142.636 52.848C142.636 55.536 142.476 60.208 141.932 65.456C145.836 60.4 147.724 56.016 147.724 53.04C147.724 51.376 146.892 50.544 146.892 49.648C146.892 49.2 147.18 48.72 147.788 48.72C148.62 48.72 149.1 49.648 149.1 51.76C149.1 55.184 146.988 59.696 143.628 64.496C140.172 69.456 137.004 73.328 133.26 73.328Z" fill="black"/>
<path d="M48.02 47.52H48.58C48.58 50.64 47.96 52.32 46 52.32C44.44 52.32 43.62 51.38 43.62 48.58V42.22H42.22V41.48C43.68 41.44 44.6 40.36 44.8 38.48H45.52V41.4H47.92V42.22H45.56V48.06C45.56 49.84 45.74 51.02 46.68 51.02C47.58 51.02 48.02 49.9 48.02 47.52ZM53.8345 52.32C51.2345 52.32 49.5345 50.02 49.5345 46.74C49.5345 43.52 51.1145 41.04 53.8345 41.04C56.4145 41.04 58.1345 43.34 58.1345 46.62C58.1345 49.84 56.5345 52.32 53.8345 52.32ZM54.1345 51.44C55.5545 51.44 56.1145 49.56 56.1145 47.8C56.1145 45.08 55.2945 41.92 53.5345 41.92C52.1145 41.92 51.5345 43.8 51.5345 45.56C51.5345 48.28 52.3745 51.44 54.1345 51.44Z" fill="black"/>
</g>
<defs>
<filter id="filter0_d_522_385" x="0.432007" y="0.503906" width="152.668" height="80.824" filterUnits="userSpaceOnUse" color-interpolation-filters="sRGB">
<feFlood flood-opacity="0" result="BackgroundImageFix"/>
<feColorMatrix in="SourceAlpha" type="matrix" values="0 0 0 0 0 0 0 0 0 0 0 0 0 0 0 0 0 0 127 0" result="hardAlpha"/>
<feOffset dy="4"/>
<feGaussianBlur stdDeviation="2"/>
<feComposite in2="hardAlpha" operator="out"/>
<feColorMatrix type="matrix" values="0 0 0 0 0 0 0 0 0 0 0 0 0 0 0 0 0 0 0.25 0"/>
<feBlend mode="normal" in2="BackgroundImageFix" result="effect1_dropShadow_522_385"/>
<feBlend mode="normal" in="SourceGraphic" in2="effect1_dropShadow_522_385" result="shape"/>
</filter>
</defs>
</svg>
