<svg width="80" height="72" viewBox="0 0 80 72" fill="none" xmlns="http://www.w3.org/2000/svg">
<g id="Group">
<path id="Vector" d="M80 35.6528C80 30.3498 73.3632 25.3241 63.1879 22.2076C65.5361 11.8299 64.4925 3.57344 59.894 0.930073C58.8341 0.310024 57.5948 0.0163168 56.2413 0.0163168V3.65503C56.9914 3.65503 57.5948 3.80188 58.1003 4.07927C60.318 5.352 61.2801 10.1982 60.53 16.4313C60.3506 17.9651 60.0571 19.5805 59.6983 21.2285C56.5022 20.4453 53.0126 19.8416 49.3437 19.45C47.1423 16.4313 44.8594 13.69 42.5601 11.2914C47.8761 6.34734 52.8659 3.63871 56.2576 3.63871V0C51.7733 0 45.903 3.19815 39.9674 8.74596C34.0318 3.23078 28.1614 0.0652686 23.6771 0.0652686V3.70398C27.0526 3.70398 32.0587 6.3963 37.3746 11.3077C35.0917 13.7064 32.8088 16.4313 30.64 19.45C26.9548 19.8416 23.4651 20.4453 20.2691 21.2448C19.894 19.6131 19.6168 18.0304 19.4211 16.5129C18.6547 10.2798 19.6005 5.43359 21.8019 4.14454C22.2911 3.85083 22.927 3.7203 23.6771 3.7203V0.0815854C22.3074 0.0815854 21.0681 0.375293 19.9918 0.995342C15.4097 3.63871 14.3824 11.8788 16.7468 22.2239C6.60416 25.3567 0 30.3661 0 35.6528C0 40.9559 6.63677 45.9815 16.8121 49.0981C14.4639 59.4758 15.5075 67.7322 20.106 70.3756C21.1659 70.9956 22.4052 71.2893 23.775 71.2893C28.2593 71.2893 34.1296 68.0912 40.0652 62.5434C46.0008 68.0585 51.8712 71.2241 56.3555 71.2241C57.7252 71.2241 58.9645 70.9304 60.0408 70.3103C64.6229 67.6669 65.6502 59.4268 63.2858 49.0818C73.3958 45.9652 80 40.9396 80 35.6528ZM58.7689 24.7693C58.1655 26.8742 57.4154 29.0444 56.5675 31.2146C55.8989 29.9092 55.1977 28.6038 54.4313 27.2985C53.6812 25.9931 52.8822 24.7204 52.0832 23.4803C54.3987 23.8229 56.6327 24.2472 58.7689 24.7693ZM51.3004 42.147C50.0285 44.3498 48.724 46.4384 47.3706 48.3801C44.9409 48.5923 42.4786 48.7065 40 48.7065C37.5377 48.7065 35.0754 48.5923 32.662 48.3965C31.3086 46.4547 29.9878 44.3825 28.7159 42.196C27.4766 40.0584 26.3514 37.8883 25.3241 35.7018C26.3351 33.5153 27.4766 31.3288 28.6996 29.1913C29.9715 26.9885 31.276 24.8999 32.6294 22.9581C35.0591 22.746 37.5214 22.6318 40 22.6318C42.4623 22.6318 44.9246 22.746 47.338 22.9418C48.6914 24.8836 50.0122 26.9558 51.2841 29.1423C52.5234 31.2799 53.6486 33.45 54.6759 35.6365C53.6486 37.823 52.5234 40.0095 51.3004 42.147ZM56.5675 40.0258C57.448 42.2123 58.1981 44.3988 58.8178 46.52C56.6816 47.0422 54.4313 47.4827 52.0995 47.8254C52.8985 46.569 53.6975 45.2799 54.4476 43.9582C55.1977 42.6529 55.8989 41.3312 56.5675 40.0258ZM40.0326 57.4361C38.5161 55.8697 36.9996 54.1238 35.4994 52.2147C36.967 52.2799 38.4672 52.3289 39.9837 52.3289C41.5165 52.3289 43.033 52.2962 44.5169 52.2147C43.0493 54.1238 41.5328 55.8697 40.0326 57.4361ZM27.9005 47.8254C25.585 47.4827 23.351 47.0585 21.2148 46.5363C21.8182 44.4314 22.5683 42.2612 23.4162 40.0911C24.0848 41.3964 24.786 42.7018 25.5524 44.0072C26.3188 45.3125 27.1015 46.5853 27.9005 47.8254ZM39.9511 13.8695C41.4676 15.436 42.9841 17.1819 44.4843 19.091C43.0167 19.0257 41.5165 18.9768 40 18.9768C38.4672 18.9768 36.9507 19.0094 35.4668 19.091C36.9344 17.1819 38.4509 15.436 39.9511 13.8695ZM27.8842 23.4803C27.0852 24.7367 26.2862 26.0257 25.5361 27.3474C24.786 28.6528 24.0848 29.9582 23.4162 31.2635C22.5357 29.077 21.7856 26.8906 21.1659 24.7693C23.3021 24.2635 25.5524 23.8229 27.8842 23.4803ZM13.1268 43.9093C7.35426 41.4454 3.62006 38.2146 3.62006 35.6528C3.62006 33.091 7.35426 29.8439 13.1268 27.3964C14.5292 26.7926 16.062 26.2542 17.6437 25.7484C18.5732 28.9465 19.7962 32.2752 21.3127 35.6855C19.8125 39.0794 18.6058 42.3918 17.6926 45.5736C16.0783 45.0678 14.5455 44.513 13.1268 43.9093ZM21.8997 67.2264C19.682 65.9537 18.7199 61.1075 19.47 54.8743C19.6494 53.3405 19.9429 51.7252 20.3017 50.0771C23.4978 50.8603 26.9874 51.4641 30.6563 51.8557C32.8577 54.8743 35.1406 57.6156 37.4399 60.0142C32.1239 64.9583 27.1341 67.6669 23.7424 67.6669C23.0086 67.6506 22.3889 67.5038 21.8997 67.2264ZM60.5789 54.7928C61.3453 61.0259 60.3995 65.8721 58.1981 67.1611C57.7089 67.4548 57.073 67.5854 56.3229 67.5854C52.9474 67.5854 47.9413 64.893 42.6254 59.9816C44.9083 57.583 47.1912 54.858 49.36 51.8394C53.0453 51.4478 56.5349 50.844 59.7309 50.0445C60.106 51.6925 60.3995 53.2753 60.5789 54.7928ZM66.8569 43.9093C65.4546 44.513 63.9217 45.0515 62.34 45.5573C61.4105 42.3591 60.1875 39.0305 58.671 35.6202C60.1712 32.2262 61.3779 28.9139 62.2911 25.732C63.9054 26.2379 65.4382 26.7926 66.8732 27.3964C72.6457 29.8603 76.3799 33.091 76.3799 35.6528C76.3636 38.2146 72.6294 41.4617 66.8569 43.9093Z" fill="#61DAFB"/>
<path id="Vector_2" d="M39.9833 43.1096C44.099 43.1096 47.4354 39.771 47.4354 35.6527C47.4354 31.5344 44.099 28.1958 39.9833 28.1958C35.8677 28.1958 32.5312 31.5344 32.5312 35.6527C32.5312 39.771 35.8677 43.1096 39.9833 43.1096Z" fill="#61DAFB"/>
</g>
</svg>
